<svg xmlns="http://www.w3.org/2000/svg" viewBox="0 0 128 128">
  <path fill="#f44336" d="M28.2 84.3c-3.5 10.5-6.5 22.8-6.2 27.3.2 3.1 4.5 7.1 7.6 7 4.5-.2 16.8-2.9 27.4-6.2l-28.8-28.1z"/>
  <path fill="#ffca28" d="M56.2 112.6c12.2-3.8 26.3-10.4 34.2-18.3 26.2-26.2 30-71 29.5-79.3C111.2 6.5 62.2 2.5 36 28.6c-7.9 7.9-14.5 22-18.3 34.2l38.5 49.8z"/>
  <circle fill="#bbdefb" cx="73.9" cy="54" r="15.4"/>
  <circle fill="#1e88e5" cx="73.9" cy="54" r="9.2"/>
  <path fill="#e53935" d="M97.1 3.8S111.3 6 124 18.6c12.6 12.6 14.8 26.9 14.8 26.9S121 29.2 97.1 3.8z" transform="scale(.92) translate(5 5)"/>
  <path fill="#c62828" d="M3.8 97.1s2.2 14.2 14.8 26.9c12.6 12.6 26.9 14.8 26.9 14.8S29.2 121 3.8 97.1z" transform="scale(.92) translate(5 5)"/>
  <ellipse fill="#ff5722" cx="29" cy="99" rx="8" ry="10" transform="rotate(-45 29 99)"/>
  <ellipse fill="#ffc107" cx="29" cy="99" rx="4" ry="6" transform="rotate(-45 29 99)"/>
</svg>
